<?xml version="1.0" standalone="yes"?>
<svg xmlns="http://www.w3.org/2000/svg" width="400" height="400">
<path style="fill:#7bff7f; stroke:none;" d="M0 0L0 400L400 400L400 0L0 0z"/>
<path style="fill:#efefef; stroke:none;" d="M198 4.74307C184.855 8.21109 170.836 19.986 159 26.7191C129.894 43.2767 100.874 60.0522 72 77.0108C62.369 82.6673 52.596 88.0845 43 93.7994C39.3876 95.9507 33.3445 98.0525 31.6034 102.185C26.9484 113.234 31 133.988 31 146L31 249L31 282C31 285.988 29.8759 292.122 32.0278 295.671C36.4427 302.953 51.7033 308.238 59 312.421C81.7303 325.453 104.247 338.861 127 351.85C145.026 362.14 162.999 372.517 181 382.85C186.405 385.953 195.418 393.993 202 392.257C214.57 388.941 227.709 377.714 239 371.281C268.771 354.318 298.284 336.907 328 319.85L357 303.15C360.63 301.078 366.665 298.925 368.397 294.815C373.052 283.766 369 263.012 369 251L369 148L369 115C369 111.012 370.124 104.878 367.972 101.329C363.61 94.1335 348.231 88.7242 341 84.5787C318.289 71.5582 295.745 58.2404 273 45.2809C254.948 34.9954 237.019 24.4929 219 14.1497C213.595 11.0473 204.582 3.00662 198 4.74307z"/>
<path style="fill:#7bff7f; stroke:none;" d="M199 21.8627C187.564 23.5084 172.952 36.1441 163 41.9892C136.459 57.5774 109.732 72.8905 83 88.1505C73.971 93.3047 64.9322 98.4789 56 103.799C52.8195 105.694 48.1001 107.443 46.6034 111.105C43.2956 119.199 46 133.283 46 142L46 214L46 266C46 271.677 44.073 281.771 47.0278 286.787C50.5064 292.692 62.1638 296.819 68 300.15C85.3783 310.071 102.62 320.229 120 330.15C139.731 341.414 159.259 353.033 179 364.281C184.568 367.453 194.323 376.098 201 375.137C212.436 373.492 227.048 360.856 237 355.011C263.887 339.219 291.209 324.156 318 308.201C326.268 303.277 334.636 298.477 343 293.719C346.432 291.767 351.8 289.802 353.397 285.895C356.704 277.802 354 263.717 354 255L354 183L354 131C354 125.323 355.927 115.229 352.972 110.213C349.662 104.593 338.544 100.642 333 97.4244C316.025 87.5723 298.924 77.9291 282 67.9892C262.082 56.2912 242.078 44.7023 222 33.2809C216.239 30.0037 205.881 20.8724 199 21.8627z"/>
<path style="fill:#efefef; stroke:none;" d="M197 116.819C189.435 119.319 173.457 126.747 168.742 133.213C165.151 138.138 169.083 144.903 163.852 149.046C155.585 155.591 137.635 158.953 132.318 168.213C127.258 177.025 134.132 189.724 130.397 198.896C128.216 204.25 120.832 204.452 118.028 209.213C114.901 214.521 114.831 239.4 118.028 244.671C121.696 250.722 141.975 261.326 149 262.138C153.006 262.601 155.893 259.052 160 260.321C169.962 263.399 179.902 271.068 189 276.14C193.266 278.518 197.938 281.853 203 280.181C216.165 275.83 226.769 264.409 240 260.321C244.107 259.052 246.994 262.601 251 262.138C257.959 261.334 280.524 249.762 282.566 242.907C284.768 235.519 282.83 225.678 283.015 218C283.078 215.354 284.192 211.722 282.883 209.275C279.993 203.874 271.121 204.799 269.318 197.96C267.025 189.263 273.296 173.619 266.486 166.637C258.136 158.076 242.128 156.995 234.603 147.61C231.297 143.486 234.637 137.573 231.972 133.275C230.329 130.623 226.605 129.563 224 128.136C217.145 124.38 205.142 114.129 197 116.819z"/>
<path style="fill:#7bff7f; stroke:none;" d="M179 135C193.718 147.207 206.282 147.207 221 135L200 124.449L179 135M175 142L176.028 165.363L196 177C196 170.462 197.951 160.248 195.397 154.185C193.009 148.518 180.531 143.75 175 142M204 177L223.972 165.363L225 142C219.469 143.75 206.991 148.518 204.603 154.185C202.049 160.248 204 170.462 204 177M139 196L150 192.042L174 204.565L181.687 210.133L182 229L180.972 243.895L166 254C172.271 259.871 191.281 272.551 200 272.551C208.719 272.551 227.729 259.871 234 254C229.492 251.241 221.671 248.662 219.028 243.895C216.823 239.919 218 233.399 218 229C218 223.631 216.364 214.928 219.028 210.104C222.397 204.003 243.054 192.468 250 192.032C253.751 191.796 257.497 194.892 261 196C261 189.383 262.916 179.268 260.397 173.105C257.613 166.295 239.771 158.954 233 157C232.991 171.265 224.291 173.584 213 180C209.404 182.044 204.265 186.164 200 186.164C195.811 186.164 190.575 182.122 187 180.139C175.672 173.855 167.009 171.143 167 157C160.229 158.954 142.387 166.295 139.603 173.105C137.084 179.268 139 189.383 139 196M129 210C132.922 214.575 144.673 222.434 151 221.258C157.61 220.029 163.794 214.584 170 212L170 210L149 200.039L129 210M230 210L230 212C236.206 214.584 242.39 220.029 249 221.258C255.327 222.434 267.078 214.575 271 210L251 200.039L230 210M174 217L154.028 229.213L153 252C169.468 247.256 181.577 235.057 174 217M225 217C225 223.38 222.982 233.809 225.603 239.671C228.167 245.405 241.291 250.355 247 252L245.972 229.213L225 217M125 218C125 224.275 123.15 233.992 125.603 239.815C128.029 245.572 140.354 250.37 146 252C146 245.745 148.076 235.087 145.397 229.39C142.932 224.15 130.294 219.525 125 218M254 252C259.559 250.365 272.011 245.478 274.397 239.815C276.85 233.992 275 224.275 275 218C269.706 219.525 257.068 224.15 254.603 229.39C251.924 235.087 254 245.745 254 252z"/>
</svg>
