<svg id="svg" version="1.1" width="512" height="512" xmlns="http://www.w3.org/2000/svg">
<path d="M244.000 10.625 C 238.775 13.707,226.850 20.603,217.500 25.948 C 208.150 31.293,194.425 39.182,187.000 43.479 C 179.575 47.775,171.700 52.286,169.500 53.502 C 167.300 54.719,158.750 59.669,150.500 64.503 C 142.250 69.337,129.962 76.489,123.194 80.396 C 116.425 84.303,109.675 88.213,108.194 89.084 C 106.712 89.955,103.350 91.866,100.722 93.330 C 98.095 94.794,88.870 100.097,80.222 105.116 C 71.575 110.134,59.775 116.964,54.000 120.294 C 48.225 123.623,42.487 127.248,41.250 128.348 L 39.000 130.349 39.000 254.000 L 39.000 377.651 41.250 379.743 C 42.487 380.893,55.200 388.569,69.500 396.801 C 83.800 405.032,97.075 412.695,99.000 413.830 C 100.925 414.964,106.100 417.944,110.500 420.452 C 114.900 422.960,120.750 426.369,123.500 428.029 C 126.250 429.688,129.175 431.338,130.000 431.696 C 130.825 432.053,138.475 436.493,147.000 441.562 C 155.525 446.630,170.600 455.388,180.500 461.023 C 202.783 473.706,229.136 488.836,242.984 496.897 C 248.750 500.254,254.600 502.997,255.984 502.993 C 258.525 502.985,260.586 501.880,289.500 485.019 C 298.300 479.887,314.500 470.535,325.500 464.237 C 336.500 457.938,346.850 451.979,348.500 450.995 C 354.334 447.516,376.555 434.667,380.500 432.492 C 382.700 431.279,386.525 429.100,389.000 427.650 C 391.475 426.199,397.100 422.961,401.500 420.453 C 405.900 417.945,410.850 415.077,412.500 414.081 C 415.250 412.420,435.363 400.840,459.000 387.308 C 464.225 384.316,469.512 380.920,470.750 379.760 L 473.000 377.651 473.000 254.000 L 473.000 130.349 470.750 128.321 C 469.512 127.206,463.775 123.603,458.000 120.313 C 448.146 114.700,411.318 93.463,404.326 89.362 C 402.580 88.338,395.665 84.350,388.958 80.500 C 382.252 76.650,374.681 72.290,372.133 70.811 C 369.585 69.333,365.925 67.258,364.000 66.201 C 362.075 65.144,356.450 61.899,351.500 58.990 C 346.550 56.082,340.025 52.306,337.000 50.600 C 328.376 45.736,316.828 39.075,304.673 31.955 C 267.827 10.369,258.117 5.001,255.936 5.011 C 254.596 5.017,249.225 7.543,244.000 10.625 M268.054 34.594 C 274.349 38.221,280.850 41.972,282.500 42.930 C 284.150 43.887,287.525 45.814,290.000 47.211 C 292.475 48.609,299.900 52.874,306.500 56.691 C 313.100 60.507,325.025 67.365,333.000 71.930 C 340.975 76.496,352.675 83.261,359.000 86.965 C 365.325 90.668,377.025 97.443,385.000 102.021 C 402.878 112.281,414.101 118.792,429.000 127.545 C 435.325 131.260,442.525 135.401,445.000 136.746 C 453.844 141.552,453.000 129.180,453.000 254.000 C 453.000 358.051,452.894 364.904,451.250 366.842 C 449.742 368.621,445.851 371.037,428.500 380.975 C 426.850 381.920,421.000 385.306,415.500 388.500 C 410.000 391.694,394.925 400.405,382.000 407.857 C 369.075 415.310,350.273 426.153,340.218 431.954 C 330.163 437.754,318.913 444.241,315.218 446.369 C 311.523 448.497,296.990 456.934,282.922 465.119 C 268.855 473.304,256.740 480.000,256.000 480.000 C 255.260 480.000,243.145 473.304,229.078 465.119 C 215.010 456.934,200.350 448.419,196.500 446.196 C 192.650 443.973,183.006 438.407,175.069 433.827 C 167.132 429.247,159.032 424.541,157.069 423.369 C 155.106 422.197,147.200 417.667,139.500 413.303 C 120.490 402.529,91.727 385.921,90.500 385.010 C 89.950 384.602,87.250 383.030,84.500 381.517 C 70.985 374.081,60.912 367.704,60.006 366.011 C 59.349 364.783,59.000 325.824,59.000 253.677 C 59.000 128.774,58.071 141.584,67.500 136.491 C 70.250 135.006,72.950 133.446,73.500 133.024 C 74.050 132.602,80.575 128.747,88.000 124.459 C 95.425 120.170,105.550 114.318,110.500 111.455 C 123.952 103.675,152.939 87.026,157.500 84.460 C 159.700 83.223,168.250 78.289,176.500 73.496 C 198.769 60.559,216.923 50.071,222.000 47.208 C 224.475 45.813,227.850 43.887,229.500 42.930 C 246.360 33.146,255.494 28.000,256.000 28.000 C 256.335 28.000,261.759 30.968,268.054 34.594 M247.000 151.641 C 243.425 153.619,238.647 156.264,236.383 157.520 C 234.119 158.775,228.897 161.651,224.779 163.912 C 214.323 169.650,213.604 170.635,213.161 179.838 C 212.922 184.801,212.261 188.100,211.283 189.203 C 210.029 190.620,188.722 203.000,187.539 203.000 C 187.334 203.000,183.740 205.025,179.554 207.500 C 175.368 209.975,171.482 212.000,170.920 212.000 C 170.358 212.000,169.246 213.561,168.449 215.468 C 167.361 218.072,167.000 223.541,167.000 237.417 L 167.000 255.898 163.750 258.335 C 161.963 259.675,158.617 261.717,156.316 262.872 C 149.072 266.510,149.000 266.782,149.000 290.612 C 149.000 315.406,148.287 313.623,161.000 320.616 C 165.675 323.188,171.525 326.407,174.000 327.770 C 176.475 329.133,181.553 331.806,185.285 333.710 L 192.070 337.173 197.111 334.537 L 202.153 331.901 215.827 339.318 C 223.347 343.398,234.900 349.718,241.500 353.364 C 248.100 357.009,254.625 359.992,256.000 359.992 C 257.375 359.992,263.900 357.009,270.500 353.364 C 277.100 349.718,288.653 343.398,296.173 339.318 L 309.847 331.901 314.889 334.537 L 319.930 337.173 326.715 333.712 C 330.447 331.808,336.425 328.623,340.000 326.635 C 343.575 324.647,349.561 321.372,353.303 319.358 C 357.328 317.192,360.666 314.614,361.478 313.043 C 362.492 311.082,362.915 304.697,363.099 288.559 C 363.378 264.112,363.681 265.183,355.825 262.830 C 353.783 262.218,350.512 260.398,348.556 258.786 L 345.000 255.854 345.000 237.395 C 345.000 223.538,344.639 218.071,343.551 215.468 C 342.754 213.561,341.642 212.000,341.080 212.000 C 340.518 212.000,336.632 209.975,332.446 207.500 C 328.260 205.025,324.652 203.000,324.428 203.000 C 323.338 203.000,303.212 191.421,301.250 189.665 C 299.321 187.939,298.998 186.640,298.986 180.576 C 298.966 170.047,298.592 169.306,291.621 166.001 C 288.254 164.404,282.350 161.331,278.500 159.170 C 261.098 149.404,258.349 148.045,256.000 148.045 C 254.625 148.045,250.575 149.664,247.000 151.641 M264.716 163.674 C 268.447 165.695,272.625 168.107,274.000 169.035 C 275.375 169.963,278.300 171.313,280.500 172.035 L 284.500 173.347 281.037 174.257 C 279.133 174.758,272.720 177.886,266.787 181.208 L 256.000 187.249 245.213 181.208 C 239.280 177.886,232.867 174.758,230.963 174.257 L 227.500 173.347 231.374 172.055 C 233.505 171.344,237.330 169.524,239.874 168.011 C 250.926 161.435,253.627 160.076,255.716 160.039 C 256.934 160.018,260.984 161.653,264.716 163.674 M241.256 190.990 C 249.533 194.881,249.813 195.544,250.178 212.103 C 250.401 222.219,250.186 226.276,249.479 225.306 C 248.917 224.535,243.292 221.114,236.979 217.702 L 225.500 211.500 225.000 196.461 L 224.500 181.423 230.633 185.151 C 234.006 187.202,238.786 189.829,241.256 190.990 M287.000 196.248 L 286.500 211.500 275.021 217.702 C 268.708 221.114,263.083 224.535,262.521 225.306 C 261.814 226.276,261.595 222.221,261.809 212.103 C 262.172 194.981,261.809 195.644,274.500 188.972 C 280.585 185.773,287.500 181.549,287.500 181.030 C 287.500 181.011,287.275 187.860,287.000 196.248 M214.406 216.208 C 214.833 217.148,218.629 219.913,222.841 222.352 C 235.917 229.924,254.862 240.000,256.023 240.000 C 256.632 240.000,261.264 237.698,266.315 234.886 C 271.367 232.073,277.750 228.553,280.500 227.064 C 298.503 217.318,298.910 216.883,298.965 207.293 L 299.000 201.085 309.750 207.189 C 315.663 210.545,323.186 214.746,326.469 216.522 C 333.812 220.496,334.160 221.542,333.780 238.529 L 333.500 251.047 328.034 247.524 C 325.027 245.586,321.626 244.000,320.475 244.000 C 319.324 244.000,315.736 245.593,312.502 247.541 C 309.268 249.489,300.915 254.210,293.940 258.033 C 286.965 261.856,280.638 265.731,279.879 266.645 C 277.821 269.123,277.875 311.935,279.940 314.426 C 281.629 316.464,291.977 322.025,296.981 323.585 L 300.461 324.670 297.796 326.085 C 293.503 328.364,266.778 343.283,263.500 345.230 C 261.850 346.211,259.488 347.532,258.250 348.167 C 255.889 349.378,255.064 349.130,248.500 345.230 C 245.222 343.283,218.497 328.364,214.204 326.085 L 211.539 324.670 215.019 323.585 C 220.015 322.028,230.369 316.465,232.060 314.430 C 233.177 313.084,233.622 307.747,234.044 290.598 C 234.343 278.444,234.192 267.958,233.708 267.294 C 233.225 266.631,228.930 263.989,224.164 261.423 C 219.399 258.856,210.486 253.886,204.358 250.378 C 198.230 246.870,192.365 244.000,191.324 244.000 C 190.284 244.000,186.973 245.586,183.966 247.524 L 178.500 251.047 178.220 238.529 C 177.832 221.180,178.059 220.565,186.531 215.963 C 190.364 213.881,197.775 209.747,203.000 206.777 L 212.500 201.376 213.065 207.938 C 213.376 211.547,213.980 215.269,214.406 216.208 M197.039 258.816 C 198.942 259.815,203.989 262.515,208.253 264.816 C 212.517 267.117,216.680 269.000,217.503 269.000 C 220.072 269.000,219.139 270.722,216.250 271.311 C 214.738 271.619,209.000 274.371,203.500 277.425 C 198.000 280.479,192.600 282.973,191.500 282.966 C 190.400 282.959,187.250 281.673,184.500 280.107 C 181.750 278.542,176.272 275.595,172.327 273.558 L 165.154 269.854 175.827 264.334 C 181.697 261.298,186.928 258.406,187.450 257.907 C 188.978 256.448,193.307 256.858,197.039 258.816 M324.550 257.907 C 325.072 258.406,330.303 261.298,336.173 264.334 L 346.846 269.854 339.673 273.558 C 335.728 275.595,330.250 278.542,327.500 280.107 C 324.750 281.673,321.600 282.959,320.500 282.966 C 319.400 282.973,314.000 280.479,308.500 277.425 C 303.000 274.371,297.262 271.619,295.750 271.311 C 292.861 270.722,291.928 269.000,294.497 269.000 C 295.320 269.000,299.483 267.117,303.747 264.816 C 317.449 257.422,318.381 257.000,321.011 257.000 C 322.435 257.000,324.028 257.408,324.550 257.907 M223.195 292.231 C 222.850 308.264,222.704 308.626,215.000 312.475 C 212.525 313.712,207.238 316.552,203.250 318.786 L 196.000 322.848 196.000 309.115 C 196.000 299.659,196.389 294.878,197.250 293.763 C 197.938 292.872,202.100 290.232,206.500 287.896 C 213.093 284.394,223.500 278.383,223.500 278.075 C 223.500 278.032,223.363 284.402,223.195 292.231 M309.817 290.000 C 310.307 290.000,311.899 291.104,313.354 292.452 C 315.972 294.879,316.000 295.052,316.000 308.876 L 316.000 322.848 308.750 318.786 C 304.762 316.552,299.475 313.712,297.000 312.475 C 289.311 308.634,289.150 308.239,288.805 292.444 L 288.500 278.422 298.714 284.211 C 304.331 287.395,309.328 290.000,309.817 290.000 M172.455 285.500 C 177.930 288.525,182.751 291.000,183.169 291.000 C 185.185 291.000,186.000 296.024,186.000 308.459 L 186.000 322.049 175.962 316.672 C 160.198 308.227,161.000 309.469,161.000 293.507 C 161.000 286.078,161.338 280.000,161.750 280.000 C 162.163 280.000,166.980 282.475,172.455 285.500 M351.000 293.507 C 351.000 309.469,351.802 308.227,336.038 316.672 L 326.000 322.049 326.000 308.459 C 326.000 296.024,326.815 291.000,328.831 291.000 C 329.249 291.000,334.070 288.525,339.545 285.500 C 345.020 282.475,349.837 280.000,350.250 280.000 C 350.662 280.000,351.000 286.078,351.000 293.507 " stroke="none" fill="#ffffff" fill-rule="evenodd"/></svg>